<svg width="130" height="145" viewBox="0 0 130 145" role="img" xmlns="http://www.w3.org/2000/svg" style="max-width: 130px; display: block; margin-inline: auto;">
      <title>Paper</title>
      <defs>
        <linearGradient id="pg" x1="0" y1="0" x2="0.3" y2="1">
          <stop offset="0%" stop-color="#FFFFFF"></stop>
          <stop offset="100%" stop-color="#CBD8F0"></stop>
        </linearGradient>
        <linearGradient id="edgeg" x1="0" y1="0" x2="1" y2="0">
          <stop offset="0%" stop-color="#A0B4D8"></stop>
          <stop offset="100%" stop-color="#D0DCEE"></stop>
        </linearGradient>
      <mask id="imagine-text-gaps-ztn7wr" maskUnits="userSpaceOnUse"><rect x="0" y="0" width="130" height="145" fill="white"></rect><rect x="32" y="45" width="17" height="16" fill="black" rx="2"></rect><rect x="56" y="59" width="17" height="16" fill="black" rx="2"></rect><rect x="76" y="45" width="17" height="16" fill="black" rx="2"></rect></mask></defs>

      <ellipse cx="65" cy="118" rx="40" ry="9" fill="#1a1a2e" opacity="0.2"></ellipse>

      <g id="paper-main">
        <rect x="18" y="18" width="90" height="96" rx="5" fill="#8899BB" opacity="0.4"></rect>
        <rect x="16" y="16" width="90" height="96" rx="5" fill="url(#pg)" stroke="url(#edgeg)" stroke-width="1.5"></rect>

        <polygon id="paper-corner" points="106,16 106,36 86,16" fill="#A0B8D8"></polygon>
        <polygon points="106,36 86,16 86,36" fill="#C8D8EE"></polygon>

        <rect id="shine1" x="16" y="16" width="90" height="28" rx="5" fill="white" opacity="0.15"></rect>
        <rect id="shine2" x="22" y="28" width="30" height="70" rx="3" fill="white" opacity="0.1"></rect>

        <line x1="32" y1="44" x2="88" y2="44" stroke="#6A80C8" stroke-width="2" stroke-linecap="round" opacity="0.5"></line>
        <line x1="32" y1="56" x2="88" y2="56" stroke="#6A80C8" stroke-width="2" stroke-linecap="round" opacity="0.5" mask="url(#imagine-text-gaps-ztn7wr)"></line>
        <line x1="32" y1="68" x2="88" y2="68" stroke="#6A80C8" stroke-width="2" stroke-linecap="round" opacity="0.5" mask="url(#imagine-text-gaps-ztn7wr)"></line>
        <line x1="32" y1="80" x2="68" y2="80" stroke="#6A80C8" stroke-width="2" stroke-linecap="round" opacity="0.5"></line>

        <text id="rune1" x="36" y="57" font-size="11" fill="#4A6AFF" font-family="serif" opacity="0.6">✦</text>
        <text id="rune2" x="60" y="71" font-size="11" fill="#4A6AFF" font-family="serif" opacity="0.6">✦</text>
        <text id="rune3" x="80" y="57" font-size="11" fill="#4A6AFF" font-family="serif" opacity="0.6">✦</text>
      </g>

      <g id="sparkle1" style="transform-origin: 18px 30px">
        <line x1="18" y1="26" x2="18" y2="34" stroke="#88AAFF" stroke-width="1.5" stroke-linecap="round"></line>
        <line x1="14" y1="30" x2="22" y2="30" stroke="#88AAFF" stroke-width="1.5" stroke-linecap="round"></line>
      </g>
      <g id="sparkle2" style="transform-origin: 112px 60px">
        <line x1="112" y1="56" x2="112" y2="64" stroke="#88AAFF" stroke-width="1.5" stroke-linecap="round"></line>
        <line x1="108" y1="60" x2="116" y2="60" stroke="#88AAFF" stroke-width="1.5" stroke-linecap="round"></line>
      </g>
      <g id="sparkle3" style="transform-origin: 30px 112px">
        <line x1="30" y1="108" x2="30" y2="116" stroke="#88AAFF" stroke-width="1.5" stroke-linecap="round"></line>
        <line x1="26" y1="112" x2="34" y2="112" stroke="#88AAFF" stroke-width="1.5" stroke-linecap="round"></line>
      </g>
    </svg>